<?xml version="1.0" encoding="UTF-8"?>
<svg version="1.1" xmlns="http://www.w3.org/2000/svg" width="875" height="263">
<path d="M0 0 C10.04475552 0.00237127 20.08950944 0.00257492 30.13426516 0.00148464 C30.86455374 0.00140825 31.59484231 0.00133187 32.34726085 0.00125317 C35.31644531 0.00094151 38.28562978 0.00062308 41.25481424 0.00029341 C68.75154362 -0.00272252 96.24826968 -0.00006236 123.74499855 0.0053903 C147.83110492 0.01013048 171.91720599 0.00970658 196.00331232 0.00492931 C223.46872975 -0.00050086 250.93414427 -0.00250758 278.39956215 0.00054158 C281.3616771 0.00086199 284.32379205 0.00117485 287.285907 0.00148464 C288.01452795 0.00156372 288.74314889 0.00164279 289.49384926 0.00172427 C299.49703272 0.0027596 309.50021424 0.00190765 319.50339745 -0.00050223 C375.7771426 -0.01384451 432.0482344 0.05497939 488.32018666 0.54966895 C491.81868359 0.58035127 495.31718709 0.61017354 498.81569204 0.63992549 C513.47001336 0.76666216 528.12359804 0.92709475 542.77699396 1.13530041 C543.82539661 1.14994923 544.87379926 1.16459806 545.95397169 1.17969079 C552.22521801 1.26898483 558.49605487 1.37104512 564.7667996 1.49058484 C566.70695026 1.52645634 568.64716117 1.55922114 570.58741973 1.58868399 C573.24184565 1.63002515 575.89573839 1.68363386 578.54986593 1.74072147 C579.71997819 1.75541115 579.71997819 1.75541115 580.91372907 1.7703976 C584.66507401 1.86489552 587.58987627 2.04315463 590.77699396 4.13530041 C585.57724481 5.1764763 580.52762192 5.34273863 575.2470257 5.43222309 C573.82865514 5.46115945 573.82865514 5.46115945 572.38163063 5.49068039 C569.23647296 5.55309152 566.09124 5.60846679 562.94593928 5.66316295 C560.70088885 5.70489941 558.45583906 5.74667081 556.21078989 5.78847492 C531.4441635 6.23594585 506.67544985 6.46822987 481.90571806 6.65977446 C477.98474001 6.69019103 474.06377028 6.72155273 470.14280054 6.75302172 C415.32884913 7.18996872 360.51585972 7.28485091 305.70024392 7.27060081 C296.41483228 7.26825299 287.12942229 7.26803085 277.84401057 7.26911617 C277.16583785 7.26919256 276.48766514 7.26926894 275.78894174 7.26934764 C273.03080425 7.26965936 270.27266676 7.2699778 267.51452928 7.2703074 C242.03828375 7.27331478 216.56204183 7.27067749 191.08579687 7.26521051 C168.83051689 7.26047083 146.57524264 7.2608957 124.31996271 7.2656715 C98.86755781 7.27111614 73.41515605 7.27310083 47.96275065 7.27005924 C45.21182622 7.26973888 42.46090179 7.26942602 39.70997736 7.26911617 C39.03343557 7.26903709 38.35689378 7.26895802 37.65985072 7.26887654 C27.78210901 7.26777525 17.90436925 7.26902786 8.02662775 7.27159572 C-46.86569303 7.28455756 -101.75487712 7.16140367 -156.6454294 6.72093187 C-160.49366364 6.69020794 -164.34190401 6.66038034 -168.19014623 6.63067532 C-192.67130455 6.43898473 -217.15092739 6.1904876 -241.6286042 5.72508433 C-243.77758566 5.68425896 -245.92659149 5.64469418 -248.07562092 5.60647737 C-251.02039459 5.5531438 -253.96497764 5.49373237 -256.90959051 5.43222309 C-257.77038922 5.41726868 -258.63118792 5.40231428 -259.51807144 5.38690671 C-263.84851586 5.2885326 -267.95844598 4.98443807 -272.22300604 4.13530041 C-268.39073517 1.61782088 -264.40323525 1.79615759 -259.97859171 1.74072147 C-259.14613181 1.72284551 -258.31367191 1.70496955 -257.45598595 1.68655189 C-254.67802551 1.62969904 -251.90004471 1.58708856 -249.12182501 1.54493786 C-247.13928042 1.50830608 -245.15674674 1.47108025 -243.17422375 1.43329776 C-236.85736976 1.31748624 -230.54029315 1.22391555 -224.22300604 1.13530041 C-223.2187883 1.12094678 -222.21457056 1.10659315 -221.17992198 1.09180457 C-206.5522963 0.88501214 -191.92429913 0.7365482 -177.29577241 0.61082635 C-173.7567429 0.58036827 -170.21772219 0.54899588 -166.67870107 0.51757909 C-111.11961218 0.030449 -55.56080939 -0.013382 0 0 Z " fill="#000000" transform="translate(277.2230060361326,123.8646995946765)"/>
<path d="M0 0 C0.66 0 1.32 0 2 0 C3.58129883 2.32885742 3.58129883 2.32885742 5.45703125 5.60546875 C5.79612518 6.19200729 6.13521912 6.77854584 6.48458862 7.38285828 C7.21691413 8.65080222 7.94599362 9.92062522 8.67221069 11.19207764 C10.59110894 14.55000835 12.53481803 17.89352673 14.4765625 21.23828125 C15.05868752 22.24290405 15.05868752 22.24290405 15.65257263 23.26782227 C18.90209838 28.86373488 22.25885486 34.38690643 25.6875 39.875 C26.19539062 40.6904126 26.70328125 41.5058252 27.2265625 42.34594727 C28.26213727 44.00767212 29.29827484 45.66904636 30.33496094 47.33007812 C33.50882176 52.41942445 36.66797107 57.51747928 39.8125 62.625 C40.73905396 64.11169189 40.73905396 64.11169189 41.68432617 65.62841797 C42.24869385 66.54768066 42.81306152 67.46694336 43.39453125 68.4140625 C43.89831299 69.2282666 44.40209473 70.0424707 44.92114258 70.88134766 C46 73 46 73 46 76 C40.72 76 35.44 76 30 76 C30.33 74.68 30.66 73.36 31 72 C29.84450273 69.35354633 29.84450273 69.35354633 28.03515625 66.6484375 C27.40029297 65.63265625 26.76542969 64.616875 26.11132812 63.5703125 C25.43521484 62.51585937 24.75910156 61.46140625 24.0625 60.375 C22.73721085 58.28096691 21.4154055 56.18472353 20.09765625 54.0859375 C19.20832397 52.6944751 19.20832397 52.6944751 18.30102539 51.27490234 C17 49 17 49 17 47 C7.76 47.33 -1.48 47.66 -11 48 C-9.02 44.04 -7.04 40.08 -5 36 C-0.38 36 4.24 36 9 36 C6.36 31.71 3.72 27.42 1 23 C-1.55275516 25.55275516 -3.04992309 27.50971381 -4.86328125 30.55078125 C-5.4142749 31.46682129 -5.96526855 32.38286133 -6.53295898 33.32666016 C-7.12020752 34.3119873 -7.70745605 35.29731445 -8.3125 36.3125 C-12.13261016 42.68965617 -15.98174269 49.02872898 -20.0703125 55.23828125 C-21.04230591 56.72171021 -21.04230591 56.72171021 -22.03393555 58.23510742 C-23.28378941 60.13257057 -24.54534968 62.02238451 -25.81958008 63.90356445 C-26.38314209 64.76296631 -26.9467041 65.62236816 -27.52734375 66.5078125 C-28.02999756 67.25691895 -28.53265137 68.00602539 -29.05053711 68.77783203 C-30.41289279 71.38656105 -30.41289279 71.38656105 -29 76 C-38.57 76 -48.14 76 -58 76 C-57.505 74.02 -57.505 74.02 -57 72 C-56.12582023 64.76293798 -57.80682543 58.50039109 -61 52 C-63.29199403 49.03949126 -63.29199403 49.03949126 -66 47 C-66.804375 46.278125 -67.60875 45.55625 -68.4375 44.8125 C-73.23166525 41.42150507 -78.10477703 40.72827896 -83.875 40.375 C-85.02742188 40.30023438 -86.17984375 40.22546875 -87.3671875 40.1484375 C-88.23601562 40.09945312 -89.10484375 40.05046875 -90 40 C-86.48864508 36.39164632 -82.82725339 33.0748726 -78.9375 29.875 C-78.42123047 29.44574219 -77.90496094 29.01648438 -77.37304688 28.57421875 C-75.17859317 26.75715517 -73.00003904 25.00002661 -70.64453125 23.39453125 C-70.10183594 22.93433594 -69.55914062 22.47414063 -69 22 C-68.66602213 18.87413125 -68.66602213 18.87413125 -69 16 C-72.56378111 13.8015636 -75.59397806 13.69489531 -79.734375 13.5859375 C-80.90194336 13.55032715 -82.06951172 13.5147168 -83.27246094 13.47802734 C-84.76497256 13.44362434 -86.25748587 13.4092943 -87.75 13.375 C-90.29200892 13.3087443 -92.83400011 13.24180633 -95.37597656 13.17431641 C-97.58398438 13.11621094 -99.79199219 13.05810547 -102 13 C-101.89230493 20.47599491 -101.77963295 27.9518975 -101.66066074 35.42772198 C-101.60556853 38.89929328 -101.55217109 42.37087319 -101.50268555 45.8425293 C-101.44567955 49.83651547 -101.38123262 53.8303518 -101.31640625 57.82421875 C-101.29969376 59.06709152 -101.28298126 60.30996429 -101.26576233 61.59049988 C-101.24581711 62.75132584 -101.22587189 63.91215179 -101.20532227 65.1081543 C-101.18977798 66.12741501 -101.1742337 67.14667572 -101.15821838 68.19682312 C-101.04387983 71.38963346 -101.04387983 71.38963346 -100 76 C-104.95 76 -109.9 76 -115 76 C-114.67 74.68 -114.34 73.36 -114 72 C-113.90783383 69.85180401 -113.87209102 67.70095296 -113.87060547 65.55078125 C-113.86745331 64.24262451 -113.86430115 62.93446777 -113.86105347 61.58666992 C-113.86284341 60.16194627 -113.8648944 58.73722293 -113.8671875 57.3125 C-113.86651363 55.84806299 -113.86554291 54.38362608 -113.86428833 52.91918945 C-113.86281528 49.85269097 -113.86495331 46.78622165 -113.86962891 43.71972656 C-113.87532596 39.7922178 -113.87204486 35.86477738 -113.86605644 31.93727112 C-113.86244024 28.91409797 -113.86359429 25.89094098 -113.86618423 22.86776733 C-113.86685057 21.41970817 -113.86603533 19.97164753 -113.86370468 18.52359009 C-113.86116085 16.49879993 -113.8657265 14.47400462 -113.87060547 12.44921875 C-113.87140106 11.29768311 -113.87219666 10.14614746 -113.87301636 8.9597168 C-113.98066272 6.45071061 -114.26475796 4.38685684 -115 2 C-108.71956197 1.92368154 -102.43924438 1.87128779 -96.15844727 1.83520508 C-94.02363618 1.82015638 -91.88885581 1.79971264 -89.75415039 1.77368164 C-86.67847086 1.73712614 -83.60320156 1.7202341 -80.52734375 1.70703125 C-79.57915268 1.69154739 -78.63096161 1.67606354 -77.65403748 1.66011047 C-69.74680269 1.65812056 -63.8475941 3.31483907 -58 9 C-56.14029559 11.91353691 -54.98698013 13.87657156 -55.02734375 17.359375 C-56.43900204 21.19182882 -59.23615551 23.00136895 -62.4375 25.3125 C-63.03626953 25.76689453 -63.63503906 26.22128906 -64.25195312 26.68945312 C-68.69754464 30 -68.69754464 30 -71 30 C-71 30.66 -71 31.32 -71 32 C-70.175 32.061875 -69.35 32.12375 -68.5 32.1875 C-60.41290587 34.06486114 -54.7399201 39.36169353 -50 46 C-45.54348356 53.27040663 -44.43812766 61.73076594 -43 70 C-42.33097656 68.88109375 -41.66195312 67.7621875 -40.97265625 66.609375 C-29.59798626 47.6071515 -18.14026442 28.65340209 -6.5 9.8125 C-5.6812439 8.48520874 -5.6812439 8.48520874 -4.84594727 7.13110352 C-4.35022217 6.33115967 -3.85449707 5.53121582 -3.34375 4.70703125 C-2.91255859 4.0106958 -2.48136719 3.31436035 -2.03710938 2.59692383 C-1 1 -1 1 0 0 Z " fill="#000000" transform="translate(363,22)"/>
<path d="M0 0 C4.19449853 1.50914092 5.49870472 4.01102667 7.65234375 7.80078125 C7.98869843 8.38462585 8.3250531 8.96847046 8.67160034 9.57000732 C9.39350906 10.8253189 10.1107079 12.08334856 10.82363892 13.34378052 C12.70761153 16.6736514 14.62592838 19.98370313 16.5390625 23.296875 C17.11129295 24.29129356 17.11129295 24.29129356 17.69508362 25.30580139 C20.9562765 30.96166974 24.34749952 36.52908183 27.8125 42.0625 C32.74037007 49.94292054 37.55944803 57.88141255 42.30786133 65.87133789 C42.77861084 66.66145264 43.24936035 67.45156738 43.734375 68.265625 C44.14913086 68.96461914 44.56388672 69.66361328 44.99121094 70.38378906 C45.90027231 71.97541958 45.90027231 71.97541958 47 73 C47.4964502 72.26233398 47.4964502 72.26233398 48.00292969 71.50976562 C54.31008762 62.15971869 60.70563623 52.92050809 67.5324707 43.94165039 C72.70582758 37.11946258 77.62354709 30.12295574 82.52124023 23.10131836 C84.66443451 20.05583823 86.83288186 17.02848464 89 14 C83.94630355 13.95051367 78.89274858 13.91423955 73.83886719 13.89013672 C72.12009219 13.8800873 70.40133425 13.86644555 68.68261719 13.84912109 C66.21024359 13.82482609 63.73809631 13.81350632 61.265625 13.8046875 C60.49881409 13.79436493 59.73200317 13.78404236 58.94195557 13.77340698 C55.14043233 13.77260988 52.22135482 13.85490428 49 16 C50 11 50 11 55 2 C73.81 2 92.62 2 112 2 C107.50113379 9.87301587 107.50113379 9.87301587 105.22265625 12.98828125 C104.71605469 13.68501953 104.20945313 14.38175781 103.6875 15.09960938 C103.15125 15.82986328 102.615 16.56011719 102.0625 17.3125 C100.89704198 18.91269237 99.73168008 20.51295475 98.56640625 22.11328125 C97.67719482 23.33072021 97.67719482 23.33072021 96.77001953 24.57275391 C93.9995703 28.3718996 91.2502363 32.18621049 88.5 36 C85.11450317 40.69123517 81.72553065 45.37987978 78.328125 50.0625 C77.72935547 50.88878906 77.13058594 51.71507812 76.51367188 52.56640625 C75.35991307 54.15841453 74.20501074 55.74959487 73.04882812 57.33984375 C72.27442383 58.40912109 72.27442383 58.40912109 71.484375 59.5 C71.02772461 60.1290625 70.57107422 60.758125 70.10058594 61.40625 C68.93259278 63.01793675 68.93259278 63.01793675 68 65 C74.19330109 64.90643871 80.38621249 64.80033805 86.57910156 64.68261719 C88.68581254 64.64433694 90.79258867 64.6094824 92.89941406 64.578125 C95.92797121 64.53245402 98.95608022 64.47446255 101.984375 64.4140625 C102.92617615 64.40251129 103.86797729 64.39096008 104.83831787 64.37905884 C106.15923431 64.3492543 106.15923431 64.3492543 107.50683594 64.31884766 C108.27960876 64.30552399 109.05238159 64.29220032 109.84857178 64.2784729 C112.25118769 63.9674872 113.90710138 63.19312386 116 62 C115 67 115 67 110 76 C83.6 76 57.2 76 30 76 C30 74 30 74 32 72 C28.28877797 63.37964798 24.24118393 54.20011915 17 48 C8.33664295 45.06941366 -1.14248127 46.49430868 -10 48 C-9.69707031 47.25234375 -9.39414062 46.5046875 -9.08203125 45.734375 C-8.23422238 43.59189772 -7.44866844 41.42476697 -6.6875 39.25 C-5.68359375 37.44921875 -5.68359375 37.44921875 -4 36 C0.43282387 35.06070275 4.42828311 35.04571717 9 35 C5.535 29.06 5.535 29.06 2 23 C-0.88698571 25.88698571 -2.55475774 27.59758556 -4.48828125 30.921875 C-5.16636841 32.07248413 -5.16636841 32.07248413 -5.8581543 33.24633789 C-6.57805542 34.48565063 -6.57805542 34.48565063 -7.3125 35.75 C-12.77005532 45.01337949 -18.42978739 54.13569379 -24.18676758 63.21582031 C-24.79931396 64.18745117 -25.41186035 65.15908203 -26.04296875 66.16015625 C-26.58977295 67.02261963 -27.13657715 67.88508301 -27.69995117 68.77368164 C-29.12989322 71.04749608 -29.12989322 71.04749608 -30 74 C-29.34 74 -28.68 74 -28 74 C-28 74.66 -28 75.32 -28 76 C-33.28 76 -38.56 76 -44 76 C-43.14599037 71.72995187 -42.61116037 69.95299118 -40.4375 66.46484375 C-39.89657715 65.58739502 -39.3556543 64.70994629 -38.79833984 63.8059082 C-38.2048877 62.8593335 -37.61143555 61.91275879 -37 60.9375 C-35.72091885 58.86745642 -34.44229338 56.79713122 -33.1640625 54.7265625 C-32.14747559 53.0873584 -32.14747559 53.0873584 -31.11035156 51.41503906 C-27.85904446 46.16374159 -24.66008191 40.88056312 -21.45822144 35.59902954 C-20.37858267 33.8184088 -19.29792747 32.03840851 -18.21704102 30.25854492 C-12.10735396 20.19473548 -6.04184756 10.10466991 0 0 Z " fill="#000000" transform="translate(44,22)"/>
<path d="M0 0 C0.66 0 1.32 0 2 0 C8.00753104 11.91395137 13.98305268 23.84234808 19.75 35.875 C20.17974121 36.76533936 20.60948242 37.65567871 21.05224609 38.57299805 C21.44234863 39.39195557 21.83245117 40.21091309 22.234375 41.0546875 C22.57694336 41.77124512 22.91951172 42.48780273 23.27246094 43.22607422 C24 45 24 45 24 47 C24.66 47 25.32 47 26 47 C26.14405273 46.45504883 26.28810547 45.91009766 26.43652344 45.34863281 C27.94532025 39.97696579 29.81257653 34.82145302 31.953125 29.671875 C32.21903442 29.02915649 32.48494385 28.38643799 32.75891113 27.72424316 C33.86762041 25.05233806 34.98086164 22.38265782 36.11328125 19.72070312 C36.9482873 17.75138521 37.76442359 15.77507297 38.578125 13.796875 C39.31144043 12.05422363 39.31144043 12.05422363 40.05957031 10.27636719 C41.37309636 6.58593442 41.37309636 6.58593442 40 1 C44.95 1 49.9 1 55 1 C54.18640913 5.88154522 53.23253268 9.33375664 51.40795898 13.83154297 C51.01272034 14.81309105 51.01272034 14.81309105 50.60949707 15.81446838 C49.74412991 17.95942553 48.87019507 20.10077658 47.99609375 22.2421875 C47.39164304 23.7355529 46.78773345 25.22913743 46.18434143 26.72293091 C44.60000674 30.64103764 43.00836606 34.5561354 41.41516113 38.47064209 C39.78860829 42.47081665 38.16901638 46.47380691 36.54882812 50.4765625 C33.37267326 58.32047335 30.18879087 66.16121762 27 74 C26.01 74 25.02 74 24 74 C21.68803811 69.1114448 19.37687809 64.22251156 17.06640625 59.33325195 C16.28308879 57.67592556 15.49956612 56.01869614 14.71582031 54.36157227 C10.09710108 44.59552079 5.50211758 34.82050489 1 25 C-4.6920788 36.24626067 -10.15825501 47.58361868 -15.5 59 C-16.23419071 60.56519063 -16.96856497 62.13029517 -17.703125 63.6953125 C-19.47085474 67.46255865 -21.23614148 71.23093986 -23 75 C-23.66 75 -24.32 75 -25 75 C-29.32946323 64.52308258 -33.64542795 54.04066693 -37.95111084 43.55395508 C-39.01181262 40.97123729 -40.07353774 38.38894156 -41.13525391 35.80664062 C-42.88468937 31.54945577 -44.62796804 27.28979243 -46.36715698 23.02841187 C-47.03859527 21.38558892 -47.71187242 19.74351633 -48.38699341 18.10220337 C-49.33326447 15.80059325 -50.27289987 13.49638186 -51.2109375 11.19140625 C-51.49463699 10.50540344 -51.77833649 9.81940063 -52.07063293 9.11260986 C-53.23300023 6.23873727 -54 4.13294012 -54 1 C-49.05 1 -44.1 1 -39 1 C-39.33 2.65 -39.66 4.3 -40 6 C-39.56501605 8.14252837 -39.56501605 8.14252837 -38.64477539 10.20776367 C-38.16416405 11.39875923 -38.16416405 11.39875923 -37.67384338 12.61381531 C-37.31870163 13.45668594 -36.96355988 14.29955658 -36.59765625 15.16796875 C-36.24110458 16.04399246 -35.88455292 16.92001617 -35.51719666 17.82258606 C-34.37775462 20.6160413 -33.22091778 23.40186686 -32.0625 26.1875 C-30.91097568 28.98508743 -29.76309701 31.78411427 -28.61851501 34.58454895 C-27.90548522 36.32600314 -27.18780055 38.06555986 -26.46510315 39.80302429 C-26.14154343 40.58756485 -25.8179837 41.37210541 -25.48461914 42.18041992 C-25.19736465 42.87149338 -24.91011017 43.56256683 -24.614151 44.27458191 C-24 46 -24 46 -24 48 C-23.34 48 -22.68 48 -22 48 C-21.74331543 47.16968262 -21.48663086 46.33936523 -21.22216797 45.48388672 C-19.86143132 41.60499898 -18.20915551 37.96573297 -16.4453125 34.2578125 C-15.93108231 33.16700882 -15.93108231 33.16700882 -15.40646362 32.0541687 C-14.68352116 30.52218447 -13.95897385 28.99095665 -13.23291016 27.46044922 C-12.1323854 25.14056825 -11.03644821 22.81856701 -9.94140625 20.49609375 C-9.23464246 18.99987363 -8.52761954 17.50377588 -7.8203125 16.0078125 C-7.49725128 15.32421661 -7.17419006 14.64062073 -6.84133911 13.93630981 C-4.62172718 9.25934931 -2.32732785 4.6243301 0 0 Z " fill="#000000" transform="translate(490,23)"/>
<path d="M0 0 C6.49196796 -0.10217095 12.98372542 -0.17178598 19.47631836 -0.21972656 C21.68082426 -0.23973086 23.88527786 -0.26694322 26.08959961 -0.30175781 C29.27470883 -0.35077058 32.45911116 -0.37308127 35.64453125 -0.390625 C36.61582474 -0.41127014 37.58711823 -0.43191528 38.58784485 -0.45318604 C48.52307699 -0.45637881 57.04683763 2.18046631 64.28515625 9.15234375 C71.92568877 17.38462594 74.53204541 25.82645209 74.4375 37 C74.45748047 37.83789062 74.47746094 38.67578125 74.49804688 39.5390625 C74.49071363 49.01361177 70.49949315 57.16978043 64 64 C50.75251014 74.90258745 34.00402529 73.14467474 17.8125 73.0625 C16.08007942 73.05747379 14.34765743 73.05291287 12.61523438 73.04882812 C8.41012072 73.03791402 4.20507634 73.02071152 0 73 C0.16233124 72.47334244 0.32466248 71.94668488 0.49191284 71.40406799 C1.12644455 68.40171428 1.1272789 65.60508249 1.12939453 62.53491211 C1.13412277 60.56783546 1.13412277 60.56783546 1.13894653 58.5610199 C1.13715678 57.13312751 1.13510583 55.70523542 1.1328125 54.27734375 C1.1334863 52.81051111 1.13445697 51.34367857 1.13571167 49.87684631 C1.13718457 46.80615168 1.13504687 43.73548617 1.13037109 40.66479492 C1.12466901 36.72821966 1.12795841 32.79171251 1.13394356 28.85513973 C1.13755587 25.82771796 1.13640758 22.80031235 1.13381577 19.77289009 C1.13314862 18.32121332 1.13396753 16.86953509 1.13629532 15.41786003 C1.13883332 13.39047142 1.13427947 11.36307767 1.12939453 9.33569336 C1.12859894 8.1819371 1.12780334 7.02818085 1.12698364 5.83946228 C1.12625587 2.92288711 1.12625587 2.92288711 0 0 Z M13 10 C13 27.16 13 44.32 13 62 C34.9515993 63.66014809 34.9515993 63.66014809 55.2734375 55.87109375 C61.67409843 48.93463088 62.75262039 41.820623 62.42578125 32.56640625 C61.85129912 27.75445958 60.56416232 24.08663369 58 20 C57.4225 19.071875 56.845 18.14375 56.25 17.1875 C49.84205115 10.95754973 42.17967961 9.86104914 33.5078125 9.90234375 C32.4264502 9.90484131 31.34508789 9.90733887 30.23095703 9.90991211 C28.87599121 9.91901611 27.52102539 9.92812012 26.125 9.9375 C19.628125 9.9684375 19.628125 9.9684375 13 10 Z " fill="#000000" transform="translate(763,24)"/>
<path d="M0 0 C1.3758728 0.00918457 1.3758728 0.00918457 2.77954102 0.01855469 C15.07838501 0.30226505 24.30809659 4.61160048 32.88671875 13.4375 C41.13996114 23.28752355 41.52251091 34.10983045 40.5625 46.4375 C38.84596621 55.50729338 32.58285396 62.43271383 25.515625 68.0703125 C14.45803583 75.45678207 1.9285323 76.38644103 -10.93359375 74.296875 C-22.04571646 71.57149373 -31.01583125 65.60732614 -37.11328125 55.95703125 C-42.21794052 46.24462644 -42.68682053 36.31024776 -39.875 25.875 C-36.44076435 15.69195282 -30.01955947 8.38887209 -20.4375 3.4375 C-13.62387392 0.80293852 -7.27303624 -0.08312808 0 0 Z M-22.4375 19.4375 C-28.47112007 27.36225471 -29.35605285 34.56569641 -28.4375 44.4375 C-26.16256953 52.09881294 -21.60744874 57.63158765 -14.609375 61.4296875 C-5.93359574 65.39036933 3.08014873 65.53578376 12.0703125 62.5390625 C18.96234025 59.49274302 23.9092922 55.17177732 26.90625 48.234375 C29.49235339 41.15337761 29.82315495 33.52486155 26.8125 26.5 C23.05902378 19.26673854 18.24627165 14.61235543 10.58203125 11.6796875 C-1.20787337 8.33803789 -13.62364696 10.66281964 -22.4375 19.4375 Z " fill="#000000" transform="translate(584.4375,22.5625)"/>
<path d="M0 0 C6.56521314 -0.10172277 13.13022175 -0.17160061 19.69604492 -0.21972656 C21.92789302 -0.23979685 24.15968882 -0.26705933 26.39135742 -0.30175781 C29.60608857 -0.35047672 32.82012227 -0.37301516 36.03515625 -0.390625 C37.52306419 -0.42159271 37.52306419 -0.42159271 39.04103088 -0.45318604 C46.0751323 -0.45544578 50.56955009 0.69772075 55.77734375 5.7109375 C56.16019531 6.26007812 56.54304687 6.80921875 56.9375 7.375 C57.33839844 7.91898438 57.73929688 8.46296875 58.15234375 9.0234375 C59.45023525 12.0498573 59.62183701 13.73230746 59 17 C56.78183736 19.37170712 54.19724179 21.0865586 51.5 22.875 C50.78457031 23.37257813 50.06914063 23.87015625 49.33203125 24.3828125 C47.56703405 25.60654389 45.78505332 26.80571433 44 28 C44.78503906 28.35191406 45.57007813 28.70382813 46.37890625 29.06640625 C57.34832117 34.22135829 63.50500888 39.62205373 68 51 C70.348263 57.9469447 70.16730562 64.72220544 70 72 C65.38 72 60.76 72 56 72 C56.66 70.02 57.32 68.04 58 66 C57.90676009 58.1212279 54.95092673 51.05477573 50 45 C42.32544085 38.36843367 33.76716652 37.68208138 24 38 C24 37.34 24 36.68 24 36 C26.13180594 34.19455199 28.27334055 32.49364199 30.5 30.8125 C31.78517933 29.82463828 33.06903912 28.83505746 34.3515625 27.84375 C34.97708008 27.36035156 35.60259766 26.87695312 36.24707031 26.37890625 C39.61999335 23.7256654 42.82699315 20.88723915 46 18 C45.89386164 15.54775306 45.89386164 15.54775306 45 13 C41.21753002 10.99865225 37.83890882 10.70631968 33.60546875 10.5859375 C32.40341797 10.54726563 31.20136719 10.50859375 29.96289062 10.46875 C28.09407227 10.42234375 28.09407227 10.42234375 26.1875 10.375 C24.92228516 10.33632813 23.65707031 10.29765625 22.35351562 10.2578125 C19.23582149 10.16369343 16.11813086 10.07805639 13 10 C13.10752094 17.64092032 13.22015837 25.28175064 13.33933926 32.92249775 C13.39451792 36.47035451 13.44792977 40.01821959 13.49731445 43.56616211 C13.55415852 47.64445958 13.61866801 51.72260438 13.68359375 55.80078125 C13.70030624 57.07585037 13.71701874 58.35091949 13.73423767 59.66462708 C13.75418289 60.84562485 13.77412811 62.02662262 13.79467773 63.2434082 C13.81022202 64.28487503 13.8257663 65.32634186 13.84178162 66.39936829 C13.89468675 69.11411733 13.89468675 69.11411733 15 72 C10.05 72 5.1 72 0 72 C0.33 70.68 0.66 69.36 1 68 C1.09189659 65.91303531 1.12790531 63.82336145 1.12939453 61.734375 C1.13254669 60.46625977 1.13569885 59.19814453 1.13894653 57.89160156 C1.13715658 56.51106735 1.13510559 55.13053346 1.1328125 53.75 C1.1334864 52.33040348 1.13445715 50.91080707 1.13571167 49.49121094 C1.13718456 46.51886901 1.1350472 43.54655717 1.13037109 40.57421875 C1.12467405 36.76777755 1.12795523 32.96140687 1.13394356 29.15496826 C1.13756019 26.22444123 1.13640551 23.29393086 1.13381577 20.36340332 C1.13314955 18.96000154 1.13396425 17.55659824 1.13629532 16.15319824 C1.13883986 14.19067413 1.13427278 12.2281447 1.12939453 10.265625 C1.12859894 9.14961914 1.12780334 8.03361328 1.12698364 6.88378906 C1.01793554 4.40731468 0.72135725 2.35860863 0 0 Z " fill="#000000" transform="translate(635,24)"/>
<path d="M0 0 C5.28 0 10.56 0 16 0 C15.67 0.99 15.34 1.98 15 3 C14.90716725 4.74277262 14.87208169 6.48888815 14.87060547 8.23413086 C14.86745331 9.30211411 14.86430115 10.37009735 14.86105347 11.47044373 C14.8630777 12.62359573 14.86510193 13.77674774 14.8671875 14.96484375 C14.86623077 16.14969864 14.86527405 17.33455353 14.86428833 18.55531311 C14.86360736 21.06283623 14.86545586 23.57036112 14.86962891 26.07788086 C14.87497356 29.91849732 14.8696835 33.75899658 14.86328125 37.59960938 C14.86394214 40.03385443 14.86522352 42.4680994 14.8671875 44.90234375 C14.86516327 46.05347153 14.86313904 47.2045993 14.86105347 48.39060974 C14.86420563 49.46174515 14.86735779 50.53288055 14.87060547 51.63647461 C14.87140106 52.57784775 14.87219666 53.51922089 14.87301636 54.48912048 C14.9902115 56.80644956 15.34452603 58.78168073 16 61 C21.80910139 62.6635154 26.97115775 63.31172876 33 63.25 C34.13308594 63.26160156 34.13308594 63.26160156 35.2890625 63.2734375 C40.4975749 63.25553883 44.99276147 62.43389103 50 61 C50.94119323 57.81472161 51.12659234 54.95212813 51.12939453 51.63647461 C51.13412277 50.0297715 51.13412277 50.0297715 51.13894653 48.39060974 C51.1369223 47.23948196 51.13489807 46.08835419 51.1328125 44.90234375 C51.13376923 43.71653214 51.13472595 42.53072052 51.13571167 41.30897522 C51.13639197 38.80323229 51.13454813 36.29748759 51.13037109 33.79174805 C51.12501605 29.94901591 51.13032363 26.1064004 51.13671875 22.26367188 C51.13605803 19.83072891 51.13477701 17.39778601 51.1328125 14.96484375 C51.13483673 13.81169174 51.13686096 12.65853973 51.13894653 11.47044373 C51.13579437 10.40246048 51.13264221 9.33447723 51.12939453 8.23413086 C51.12859894 7.29355331 51.12780334 6.35297577 51.12698364 5.38389587 C51.09778589 2.85116126 51.09778589 2.85116126 50 0 C55.28 0 60.56 0 66 0 C65.67 0.99 65.34 1.98 65 3 C64.89886096 4.7826567 64.85431564 6.56876512 64.84228516 8.35424805 C64.82689194 9.99691902 64.82689194 9.99691902 64.81118774 11.67277527 C64.80388641 12.85712662 64.79658508 14.04147797 64.7890625 15.26171875 C64.76098702 17.76758458 64.73232251 20.27344387 64.703125 22.77929688 C64.66191422 26.73136159 64.62502802 30.68330506 64.59863281 34.63549805 C64.5709545 38.44866221 64.52507358 42.2612702 64.4765625 46.07421875 C64.47330963 47.24844894 64.47005676 48.42267914 64.46670532 49.63249207 C64.35690836 56.99499566 64.12556692 63.69582925 58.8125 69.3125 C46.82581671 76.50450997 30.56183348 76.91303399 17.1796875 73.69140625 C11.12437417 71.77063482 6.4661242 69.54579872 3 64 C1.95159226 60.77178785 1.85313465 57.74234481 1.81054688 54.36108398 C1.79382935 53.22988632 1.77711182 52.09868866 1.7598877 50.93321228 C1.74631226 49.71646317 1.73273682 48.49971405 1.71875 47.24609375 C1.69113586 45.36749413 1.69113586 45.36749413 1.66296387 43.45094299 C1.5942094 38.76598689 1.5337445 34.08095096 1.47393799 29.39587402 C1.41489388 24.80419706 1.34879443 20.21265519 1.28125 15.62109375 C1.26767456 14.4023204 1.25409912 13.18354706 1.2401123 11.92784119 C1.22339478 10.79979568 1.20667725 9.67175018 1.18945312 8.50952148 C1.17692505 7.51564926 1.16439697 6.52177704 1.15148926 5.49778748 C1.09998045 2.86958095 1.09998045 2.86958095 0 0 Z " fill="#000000" transform="translate(168,24)"/>
<path d="M0 0 C1.50519497 0.0150714 3.01040451 0.02875547 4.515625 0.04101562 C8.17738941 0.07383313 11.83860021 0.12548011 15.5 0.1875 C14.30100302 3.2706351 13.02299523 6.25029492 11.5 9.1875 C10.32812134 9.1560791 10.32812134 9.1560791 9.13256836 9.12402344 C5.56767826 9.04049817 2.00299459 8.98872311 -1.5625 8.9375 C-2.79162109 8.90398437 -4.02074219 8.87046875 -5.28710938 8.8359375 C-12.22944396 8.76108753 -16.95655813 8.80944079 -22.5 13.1875 C-24.91805004 16.93157748 -25.5 18.69237993 -25.5 23.1875 C-24.84 21.8675 -24.18 20.5475 -23.5 19.1875 C-12.28 19.1875 -1.06 19.1875 10.5 19.1875 C8.25 25.9375 8.25 25.9375 5.5 28.1875 C5.17 27.8575 4.84 27.5275 4.5 27.1875 C2.21011219 27.02861908 -0.08443441 26.93611927 -2.37890625 26.87109375 C-3.0655687 26.85031265 -3.75223114 26.82953156 -4.45970154 26.80812073 C-6.66052935 26.74255857 -8.86147975 26.68370985 -11.0625 26.625 C-12.55144514 26.58182108 -14.04037773 26.538207 -15.52929688 26.49414062 C-19.18606553 26.3868707 -22.84297318 26.28562228 -26.5 26.1875 C-26.07405412 27.62846586 -25.63373367 29.06518712 -25.1875 30.5 C-24.94386719 31.30050781 -24.70023437 32.10101563 -24.44921875 32.92578125 C-22.91639463 36.57806589 -20.76711639 38.00942241 -17.5 40.1875 C-14.24052722 41.27399093 -11.83489025 41.31678509 -8.40625 41.3203125 C-6.61380859 41.32224609 -6.61380859 41.32224609 -4.78515625 41.32421875 C-3.53605469 41.32035156 -2.28695312 41.31648438 -1 41.3125 C0.24910156 41.31636719 1.49820313 41.32023437 2.78515625 41.32421875 C3.98011719 41.32292969 5.17507813 41.32164062 6.40625 41.3203125 C7.50259766 41.31918457 8.59894531 41.31805664 9.72851562 41.31689453 C12.58778531 41.3091493 12.58778531 41.3091493 15.5 40.1875 C14.9259779 44.20565469 14.23819599 47.13491855 11.5 50.1875 C8.01920887 50.90182796 4.60056766 50.75022325 1.0625 50.625 C-0.42842163 50.59345825 -0.42842163 50.59345825 -1.94946289 50.5612793 C-22.79231313 49.97034302 -22.79231313 49.97034302 -29.5 43.1875 C-34.21945025 37.44762807 -36.05685795 30.80934332 -35.80859375 23.390625 C-34.7680047 15.96160954 -31.99078201 9.89124456 -26.671875 4.625 C-18.32882746 -0.89701707 -9.58413587 -0.16723854 0 0 Z " fill="#000000" transform="translate(496.5,147.8125)"/>
<path d="M0 0 C5.38710032 4.16845395 10.74240587 9.52187262 11.84765625 16.4296875 C12.60156949 24.09041881 11.90327703 30.76120179 7.84765625 37.4296875 C2.81845636 43.2225403 -3.38721876 47.3186225 -11.203125 47.8984375 C-12.62332582 47.93257774 -14.0442893 47.94237532 -15.46484375 47.9296875 C-16.21032471 47.92396729 -16.95580566 47.91824707 -17.72387695 47.91235352 C-25.89109759 47.6490092 -31.93269701 45.10387677 -37.58984375 39.1171875 C-42.84204271 32.19856847 -44.23114112 25.02328929 -43.15234375 16.4296875 C-41.21294138 9.16847267 -36.86061479 3.21370864 -30.35546875 -0.6328125 C-21.32913414 -4.786524 -8.7318932 -5.07970008 0 0 Z M-30.71875 10.23046875 C-34.03939855 15.1026454 -35.78440066 19.67684958 -34.77734375 25.65625 C-33.17499005 31.64504697 -30.37145985 35.13281544 -25.15234375 38.4296875 C-19.47801377 41.03042207 -14.03283699 41.20102541 -8.08984375 39.3671875 C-2.79647376 37.15733401 0.51476384 33.53787917 2.765625 28.2890625 C4.44875743 22.45420342 3.63820122 17.78170286 0.84765625 12.4296875 C-2.83384959 7.85268023 -6.76237702 4.85603301 -12.69921875 4.109375 C-19.8138037 3.81457176 -25.86387771 4.64918165 -30.71875 10.23046875 Z " fill="#000000" transform="translate(392.15234375,150.5703125)"/>
<path d="M0 0 C4.95 0 9.9 0 15 0 C14.67 0.99 14.34 1.98 14 3 C13.88340066 4.91654051 13.82333251 6.83672153 13.79467773 8.7565918 C13.77473251 9.93758957 13.75478729 11.11858734 13.73423767 12.33537292 C13.70916893 14.24797661 13.70916893 14.24797661 13.68359375 16.19921875 C13.66281265 17.50454056 13.64203156 18.80986237 13.62062073 20.15473938 C13.56547727 23.62182353 13.51603405 27.08896646 13.46777344 30.55615234 C13.4175019 34.09543069 13.36184537 37.63462389 13.30664062 41.17382812 C13.19915362 48.11581156 13.09768773 55.05787194 13 62 C17.22969262 61.88990537 21.45851298 61.75932463 25.6875 61.625 C26.88568359 61.5940625 28.08386719 61.563125 29.31835938 61.53125 C31.05375977 61.47324219 31.05375977 61.47324219 32.82421875 61.4140625 C33.88729248 61.3826416 34.95036621 61.3512207 36.0456543 61.31884766 C39.03340405 60.99639487 41.28280111 60.25206416 44 59 C43 64 43 64 38 73 C25.46 73 12.92 73 0 73 C0.33 71.35 0.66 69.7 1 68 C1.08982243 65.87507673 1.12787531 63.74766992 1.12939453 61.62084961 C1.13254669 60.35280991 1.13569885 59.0847702 1.13894653 57.77830505 C1.13715672 56.40298426 1.13510576 55.02766379 1.1328125 53.65234375 C1.13348661 52.23417647 1.13445754 50.8160093 1.13571167 49.39784241 C1.1371831 46.4314768 1.1350516 43.46514138 1.13037109 40.4987793 C1.12466892 36.70021384 1.1279594 32.90171897 1.13394356 29.10315609 C1.13755969 26.17692026 1.13640583 23.25070113 1.13381577 20.3244648 C1.13314968 18.92385411 1.13396378 17.52324189 1.13629532 16.12263298 C1.13883962 14.16500758 1.13427302 12.20737684 1.12939453 10.24975586 C1.12859894 9.1367662 1.12780334 8.02377655 1.12698364 6.87705994 C1.086111 3.77912999 1.086111 3.77912999 0 0 Z " fill="#000000" transform="translate(713,24)"/>
<path d="M0 0 C0.66 0 1.32 0 2 0 C3.98 6.27 5.96 12.54 8 19 C14.93 19.33 21.86 19.66 29 20 C29 20.66 29 21.32 29 22 C27.62304688 23.17333984 27.62304688 23.17333984 25.71875 24.4609375 C25.04199219 24.93273437 24.36523438 25.40453125 23.66796875 25.890625 C22.22628827 26.87772154 20.78097424 27.85953267 19.33203125 28.8359375 C18.65527344 29.3103125 17.97851562 29.7846875 17.28125 30.2734375 C16.65283203 30.70060059 16.02441406 31.12776367 15.37695312 31.56787109 C13.5379439 33.14945377 13.5379439 33.14945377 14 37 C14.31486738 38.38206684 14.68267025 39.75281182 15.09375 41.109375 C15.31933594 41.86347656 15.54492188 42.61757812 15.77734375 43.39453125 C16.01582031 44.17183594 16.25429688 44.94914062 16.5 45.75 C16.73847656 46.54277344 16.97695313 47.33554688 17.22265625 48.15234375 C17.81021584 50.10304157 18.40445729 52.05172457 19 54 C13.37004263 52.13714646 9.43935194 48.44701207 4.9375 44.703125 C2.19259561 42.68898774 2.19259561 42.68898774 -0.48828125 43.4453125 C-4.12219354 45.69460813 -7.44957711 48.25483589 -10.80273438 50.8984375 C-14.8055626 54 -14.8055626 54 -17 54 C-16.80664062 53.23816406 -16.61328125 52.47632813 -16.4140625 51.69140625 C-16.15367187 50.65886719 -15.89328125 49.62632812 -15.625 48.5625 C-15.36976563 47.55316406 -15.11453125 46.54382813 -14.8515625 45.50390625 C-13.84164418 41.34841665 -12.91423103 37.1774138 -12 33 C-12.4846875 32.64172119 -12.969375 32.28344238 -13.46875 31.91430664 C-15.64830076 30.30033883 -17.8241838 28.68149838 -20 27.0625 C-20.763125 26.49853516 -21.52625 25.93457031 -22.3125 25.35351562 C-23.034375 24.81533203 -23.75625 24.27714844 -24.5 23.72265625 C-25.1703125 23.22515869 -25.840625 22.72766113 -26.53125 22.21508789 C-27.25828125 21.61361938 -27.25828125 21.61361938 -28 21 C-28 20.67 -28 20.34 -28 20 C-20.74 20 -13.48 20 -6 20 C-5.566875 18.185 -5.13375 16.37 -4.6875 14.5 C-3.44129269 9.49143346 -1.93116183 4.78192454 0 0 Z " fill="#000000" transform="translate(333,206)"/>
<path d="M0 0 C0.66 0 1.32 0 2 0 C3.98 6.27 5.96 12.54 8 19 C14.93 19.33 21.86 19.66 29 20 C29 20.66 29 21.32 29 22 C27.62304688 23.17333984 27.62304688 23.17333984 25.71875 24.4609375 C25.04199219 24.93273437 24.36523438 25.40453125 23.66796875 25.890625 C22.22628827 26.87772154 20.78097424 27.85953267 19.33203125 28.8359375 C18.65527344 29.3103125 17.97851562 29.7846875 17.28125 30.2734375 C16.65283203 30.70060059 16.02441406 31.12776367 15.37695312 31.56787109 C13.5379439 33.14945377 13.5379439 33.14945377 14 37 C14.31486738 38.38206684 14.68267025 39.75281182 15.09375 41.109375 C15.31933594 41.86347656 15.54492188 42.61757812 15.77734375 43.39453125 C16.01582031 44.17183594 16.25429688 44.94914062 16.5 45.75 C16.73847656 46.54277344 16.97695313 47.33554688 17.22265625 48.15234375 C17.81021584 50.10304157 18.40445729 52.05172457 19 54 C13.37004263 52.13714646 9.43935194 48.44701207 4.9375 44.703125 C2.19259561 42.68898774 2.19259561 42.68898774 -0.48828125 43.4453125 C-4.12219354 45.69460813 -7.44957711 48.25483589 -10.80273438 50.8984375 C-14.8055626 54 -14.8055626 54 -17 54 C-16.70996094 52.98292969 -16.70996094 52.98292969 -16.4140625 51.9453125 C-14.65812571 45.66914238 -13.20080138 39.40401157 -12 33 C-12.4846875 32.64172119 -12.969375 32.28344238 -13.46875 31.91430664 C-15.64830076 30.30033883 -17.8241838 28.68149838 -20 27.0625 C-20.763125 26.49853516 -21.52625 25.93457031 -22.3125 25.35351562 C-23.034375 24.81533203 -23.75625 24.27714844 -24.5 23.72265625 C-25.1703125 23.22515869 -25.840625 22.72766113 -26.53125 22.21508789 C-27.25828125 21.61361938 -27.25828125 21.61361938 -28 21 C-28 20.67 -28 20.34 -28 20 C-20.74 20 -13.48 20 -6 20 C-5.566875 18.370625 -5.13375 16.74125 -4.6875 15.0625 C-3.3034268 9.97438328 -1.73340207 4.97892084 0 0 Z " fill="#000000" transform="translate(538,206)"/>
<path d="M0 0 C2.71609918 2.71609918 3.46920222 5.86595045 4.625 9.4375 C4.85445312 10.11876953 5.08390625 10.80003906 5.3203125 11.50195312 C6.29042613 14.44982818 7 16.87666842 7 20 C14.26 20 21.52 20 29 20 C25.38278634 23.61721366 22.28110664 26.40258684 18.1875 29.3125 C17.21167969 30.00988281 16.23585938 30.70726562 15.23046875 31.42578125 C14.12638672 32.20501953 14.12638672 32.20501953 13 33 C14.10718187 38.50985802 15.50013616 43.76770285 17.4140625 49.0546875 C18 51 18 51 18 54 C14.11390189 52.24933204 10.72187742 49.81675994 7.25 47.375 C6.64800781 46.95476562 6.04601562 46.53453125 5.42578125 46.1015625 C3.94886957 45.07006863 2.47420806 44.03535421 1 43 C-2.88609811 44.75066796 -6.27812258 47.18324006 -9.75 49.625 C-10.35199219 50.04523438 -10.95398438 50.46546875 -11.57421875 50.8984375 C-13.05113043 51.92993137 -14.52579194 52.96464579 -16 54 C-17.77550063 49.85362129 -16.02074005 46.34994156 -14.5625 42.375 C-12.73146601 37.7969164 -12.73146601 37.7969164 -12 33 C-13.51617765 31.71157318 -13.51617765 31.71157318 -15.5 30.46875 C-16.221875 29.98792969 -16.94375 29.50710937 -17.6875 29.01171875 C-18.450625 28.51285156 -19.21375 28.01398438 -20 27.5 C-21.50413932 26.51671974 -23.00437954 25.52744005 -24.5 24.53125 C-25.1703125 24.09361328 -25.840625 23.65597656 -26.53125 23.20507812 C-27.0159375 22.80740234 -27.500625 22.40972656 -28 22 C-28 21.34 -28 20.68 -28 20 C-17.605 19.505 -17.605 19.505 -7 19 C-5.06714315 13.12229456 -5.06714315 13.12229456 -3.14086914 7.24243164 C-2.77916626 6.14983032 -2.77916626 6.14983032 -2.41015625 5.03515625 C-2.16402588 4.2862915 -1.91789551 3.53742676 -1.66430664 2.76586914 C-1 1 -1 1 0 0 Z " fill="#000000" transform="translate(641,206)"/>
<path d="M0 0 C2.71609918 2.71609918 3.46920222 5.86595045 4.625 9.4375 C4.85445313 10.11876953 5.08390625 10.80003906 5.3203125 11.50195312 C6.29042613 14.44982818 7 16.87666842 7 20 C14.26 20 21.52 20 29 20 C25.38278634 23.61721366 22.28110664 26.40258684 18.1875 29.3125 C17.21167969 30.00988281 16.23585938 30.70726562 15.23046875 31.42578125 C14.12638672 32.20501953 14.12638672 32.20501953 13 33 C14.10718187 38.50985802 15.50013616 43.76770285 17.4140625 49.0546875 C18 51 18 51 18 54 C14.11390189 52.24933204 10.72187742 49.81675994 7.25 47.375 C6.64800781 46.95476562 6.04601562 46.53453125 5.42578125 46.1015625 C3.94886957 45.07006863 2.47420806 44.03535421 1 43 C-2.88609811 44.75066796 -6.27812258 47.18324006 -9.75 49.625 C-10.35199219 50.04523438 -10.95398438 50.46546875 -11.57421875 50.8984375 C-13.05113043 51.92993137 -14.52579194 52.96464579 -16 54 C-17.77550063 49.85362129 -16.02074005 46.34994156 -14.5625 42.375 C-12.73146601 37.7969164 -12.73146601 37.7969164 -12 33 C-13.51617765 31.71157318 -13.51617765 31.71157318 -15.5 30.46875 C-16.221875 29.98792969 -16.94375 29.50710937 -17.6875 29.01171875 C-18.450625 28.51285156 -19.21375 28.01398438 -20 27.5 C-21.50413932 26.51671974 -23.00437954 25.52744005 -24.5 24.53125 C-25.1703125 24.09361328 -25.840625 23.65597656 -26.53125 23.20507812 C-27.0159375 22.80740234 -27.500625 22.40972656 -28 22 C-28 21.34 -28 20.68 -28 20 C-17.605 19.505 -17.605 19.505 -7 19 C-5.06714315 13.12229456 -5.06714315 13.12229456 -3.14086914 7.24243164 C-2.77916626 6.14983032 -2.77916626 6.14983032 -2.41015625 5.03515625 C-2.16402588 4.2862915 -1.91789551 3.53742676 -1.66430664 2.76586914 C-1 1 -1 1 0 0 Z " fill="#000000" transform="translate(436,206)"/>
<path d="M0 0 C2.71609918 2.71609918 3.46920222 5.86595045 4.625 9.4375 C4.85445312 10.11876953 5.08390625 10.80003906 5.3203125 11.50195312 C6.29042613 14.44982818 7 16.87666842 7 20 C14.26 20 21.52 20 29 20 C25.38278634 23.61721366 22.28110664 26.40258684 18.1875 29.3125 C17.21167969 30.00988281 16.23585937 30.70726562 15.23046875 31.42578125 C14.12638672 32.20501953 14.12638672 32.20501953 13 33 C14.10718187 38.50985802 15.50013616 43.76770285 17.4140625 49.0546875 C18 51 18 51 18 54 C14.11390189 52.24933204 10.72187742 49.81675994 7.25 47.375 C6.64800781 46.95476562 6.04601562 46.53453125 5.42578125 46.1015625 C3.94886957 45.07006863 2.47420806 44.03535421 1 43 C-2.88609811 44.75066796 -6.27812258 47.18324006 -9.75 49.625 C-10.35199219 50.04523438 -10.95398438 50.46546875 -11.57421875 50.8984375 C-13.05113043 51.92993137 -14.52579194 52.96464579 -16 54 C-17.77550063 49.85362129 -16.02074005 46.34994156 -14.5625 42.375 C-12.73146601 37.7969164 -12.73146601 37.7969164 -12 33 C-13.51617765 31.71157318 -13.51617765 31.71157318 -15.5 30.46875 C-16.221875 29.98792969 -16.94375 29.50710937 -17.6875 29.01171875 C-18.450625 28.51285156 -19.21375 28.01398438 -20 27.5 C-21.50413932 26.51671974 -23.00437954 25.52744005 -24.5 24.53125 C-25.1703125 24.09361328 -25.840625 23.65597656 -26.53125 23.20507812 C-27.0159375 22.80740234 -27.500625 22.40972656 -28 22 C-28 21.34 -28 20.68 -28 20 C-17.605 19.505 -17.605 19.505 -7 19 C-5.06714315 13.12229456 -5.06714315 13.12229456 -3.14086914 7.24243164 C-2.77916626 6.14983032 -2.77916626 6.14983032 -2.41015625 5.03515625 C-2.16402588 4.2862915 -1.91789551 3.53742676 -1.66430664 2.76586914 C-1 1 -1 1 0 0 Z " fill="#000000" transform="translate(231,206)"/>
<path d="M0 0 C3.63 0 7.26 0 11 0 C10.67 0.99 10.34 1.98 10 3 C9.91856145 4.62719482 9.8924698 6.25751719 9.90234375 7.88671875 C9.90556641 8.82451172 9.90878906 9.76230469 9.91210938 10.72851562 C9.92048828 11.70498047 9.92886719 12.68144531 9.9375 13.6875 C9.94201172 14.67556641 9.94652344 15.66363281 9.95117188 16.68164062 C9.96295697 19.12115474 9.97940989 21.56054689 10 24 C10.99 22.02 11.98 20.04 13 18 C20.26 18 27.52 18 35 18 C34.505 9.09 34.505 9.09 34 0 C37.3 0 40.6 0 44 0 C44 16.5 44 33 44 50 C40.7 50 37.4 50 34 50 C34.33 42.08 34.66 34.16 35 26 C31.266875 26.144375 27.53375 26.28875 23.6875 26.4375 C22.51405029 26.48060303 21.34060059 26.52370605 20.1315918 26.56811523 C19.20515869 26.60622314 18.27872559 26.64433105 17.32421875 26.68359375 C16.37635498 26.72025146 15.42849121 26.75690918 14.4519043 26.79467773 C11.863829 26.91430187 11.863829 26.91430187 9 28 C9.13894148 31.10451549 9.287343 34.20850835 9.4375 37.3125 C9.47681641 38.19357422 9.51613281 39.07464844 9.55664062 39.98242188 C9.61948242 41.25375977 9.61948242 41.25375977 9.68359375 42.55078125 C9.72025146 43.33106689 9.75690918 44.11135254 9.79467773 44.9152832 C9.94125263 47.19329101 9.94125263 47.19329101 11 50 C7.37 50 3.74 50 0 50 C0 33.5 0 17 0 0 Z " fill="#000000" transform="translate(298,148)"/>
<path d="M0 0 C2.10073853 -0.36076355 2.10073853 -0.36076355 4.72509766 -0.34057617 C5.70596344 -0.34034958 6.68682922 -0.34012299 7.69741821 -0.33988953 C8.75891083 -0.32440567 9.82040344 -0.30892181 10.9140625 -0.29296875 C11.99883881 -0.28872391 13.08361511 -0.28447906 14.20126343 -0.28010559 C17.67609167 -0.263273 21.15034618 -0.22561189 24.625 -0.1875 C26.97655414 -0.17245911 29.32811735 -0.15876967 31.6796875 -0.14648438 C37.45332173 -0.11335454 43.22661989 -0.06310982 49 0 C47.73599644 6.76098188 47.73599644 6.76098188 45 9 C41.73721781 9.34933091 38.57162406 9.05040207 35.3125 8.75 C33.97348633 8.65138672 33.97348633 8.65138672 32.60742188 8.55078125 C30.40281015 8.3857301 28.20153098 8.20149283 26 8 C26.11820571 13.49941599 26.24245121 18.99864965 26.37231445 24.49780273 C26.41564622 26.36885866 26.45732257 28.23995369 26.49731445 30.11108398 C26.55505949 32.79943631 26.61874181 35.48759215 26.68359375 38.17578125 C26.70030624 39.01337479 26.71701874 39.85096832 26.73423767 40.71394348 C26.81914061 44.03673288 26.94250673 46.82752018 28 50 C24.37 50 20.74 50 17 50 C17.33 36.14 17.66 22.28 18 8 C7.11 8.495 7.11 8.495 -4 9 C-2 3 -2 3 0 0 Z " fill="#000000" transform="translate(410,148)"/>
<path d="M0 0 C3.3 0 6.6 0 10 0 C9.67 13.86 9.34 27.72 9 42 C19.67500802 41.91678178 19.67500802 41.91678178 30 40 C28.62411965 43.70429324 27.08109119 46.53151468 25 50 C16.75 50 8.5 50 0 50 C0 33.5 0 17 0 0 Z " fill="#000000" transform="translate(518,148)"/>
<path d="M0 0 C3.3 0 6.6 0 10 0 C10 0.33 10 0.66 10 1 C6.7 1.33 3.4 1.66 0 2 C0 1.34 0 0.68 0 0 Z " fill="#000000" transform="translate(690,97)"/>
<path d="M0 0 C0.33 0 0.66 0 1 0 C1 1.98 1 3.96 1 6 C0.34 6 -0.32 6 -1 6 C-0.67 4.02 -0.34 2.04 0 0 Z " fill="#000000" transform="translate(550,192)"/>
<path d="M0 0 C2 1 2 1 2 1 Z " fill="#000000" transform="translate(671,97)"/>
</svg>
